# xmcd CD database file
#
# Track frame offsets:
#	150
#	20785
#	27610
#	47700
#	67425
#	84910
#	104550
#	127510
#	147760
#	163885
#	187960
#	204760
#	231910
#	261085
#	281710
#	308175
#	325735
#
# Disc length: 4427 seconds
#
# Revision: 0
# Processed by: cddbd v1.5.1PL0 Copyright (c) Steve Scherf et al.
# Submitted via: CDex 1.51
#
DISCID=f5114911
DTITLE=Lenny "Fuzzy" Rankins - Good Lovin'
DYEAR=2004
DGENRE=Blues
TTITLE0=Good Lovin'
TTITLE1=Introduction
TTITLE2=Sweet Potato Pie
TTITLE3=She Won't Let Me Go
TTITLE4=Cry No More
TTITLE5=Mable Gable
TTITLE6=Love Shoulda Brought You To Me
TTITLE7=I'm So Sorry
TTITLE8=When It Rains
TTITLE9=No Money
TTITLE10=Cold Hearted Woman
TTITLE11=This Old Man
TTITLE12=Ringa Dinga Do
TTITLE13=Fight All The Time
TTITLE14=Missing You
TTITLE15=Mama Mama Please
TTITLE16=Introduction Out
EXTD=YEAR: 2004
EXTT0=
EXTT1=
EXTT2=
EXTT3=
EXTT4=
EXTT5=
EXTT6=
EXTT7=
EXTT8=
EXTT9=
EXTT10=
EXTT11=
EXTT12=
EXTT13=
EXTT14=
EXTT15=
EXTT16=
PLAYORDER=
